Coordinates
version=1
nRows=14
nColumns=36
inDegrees=yes

Units are S.I. units (second, meters, Newtons, ...)
If the header above contains a line with 'inDegrees', this indicates whether rotational values are in degrees (yes) or radians (no).

endheader
time	pelvis_tilt	pelvis_list	pelvis_rotation	pelvis_tx	pelvis_ty	pelvis_tz	hip_flexion_r	hip_adduction_r	hip_rotation_r	knee_angle_r	knee_angle_r_beta	ankle_angle_r	subtalar_angle_r	mtp_angle_r	hip_flexion_l	hip_adduction_l	hip_rotation_l	knee_angle_l	knee_angle_l_beta	ankle_angle_l	subtalar_angle_l	mtp_angle_l	lumbar_extension	lumbar_bending	lumbar_rotation	arm_flex_r	arm_add_r	arm_rot_r	elbow_flex_r	pro_sup_r	arm_flex_l	arm_add_l	arm_rot_l	elbow_flex_l	pro_sup_l
      4.03333330	    -15.53126479	      1.43098102	     -2.45844792	      0.35104294	      1.16957465	     -0.11381536	     18.60995752	     -8.22964002	    -19.74681824	      5.59906983	      0.09772220	    -36.42510531	     -9.54891723	     -7.49999987	     16.30442543	     -6.62938722	    -11.89719352	      4.83826943	      0.08444373	    -32.69515410	    -10.60749871	     -7.49999987	     -6.50256585	      1.02139987	     -3.77190549	     60.40508490	    -18.80217994	     39.08052156	    123.36702064	    101.80010273	     65.97677979	    -21.22429776	     46.19005584	    119.99698303	     88.84008203
      4.03750000	    -15.61178421	      1.42395028	     -2.61762005	      0.35109541	      1.16210250	     -0.11475850	     18.98678499	     -8.10232647	    -19.77032237	      6.00428168	      0.10479448	    -35.49596682	     -9.79118723	     -7.49999987	     16.42936863	     -6.73679965	    -12.12495534	      4.85143299	      0.08467348	    -32.24649656	    -10.85908926	     -7.49999987	     -6.55075042	      0.92741388	     -3.71618509	     60.46948461	    -18.58561672	     38.74247608	    123.31168197	    104.45254576	     66.13211241	    -21.20222370	     46.28373283	    120.06479697	     90.79202542
      4.04166670	    -15.59308063	      1.34441510	     -2.73786985	      0.34860590	      1.15475125	     -0.11637179	     19.32577213	     -8.08005555	    -19.86714345	      6.20445182	      0.10828811	    -34.45036322	     -9.88484050	     -7.49999987	     16.54572444	     -6.82200304	    -12.43253841	      4.95420390	      0.08646717	    -31.76380525	    -11.35014364	     -7.49999987	     -6.86335838	      1.01025595	     -3.72672390	     60.99853883	    -18.58013483	     39.05050243	    123.49658723	     99.98212465	     66.56576280	    -21.21561147	     46.62702692	    120.31503676	     87.42100395
      4.04583330	    -15.76440165	      1.31818482	     -2.93820943	      0.34690550	      1.15044191	     -0.11624515	     19.91732431	     -8.02399082	    -19.70386298	      6.54124431	      0.11416625	    -33.45718446	     -9.87464287	     -7.49999987	     16.86617075	     -6.92183024	    -12.60861933	      5.06116244	      0.08833395	    -31.26249330	    -11.31256729	     -7.49999987	     -7.01714035	      1.00456643	     -3.56567873	     61.09024692	    -18.60432873	     38.72351830	    123.51014314	    104.68772187	     66.95006113	    -21.13513233	     46.76854486	    120.44365429	     91.19578222
      4.05000000	    -15.88346855	      1.23625162	     -3.07119194	      0.34454978	      1.13842073	     -0.11741072	     20.55597976	     -7.94509770	    -19.37632737	      7.15147093	      0.12481671	    -32.48307293	    -10.18434841	     -7.49999987	     17.34524817	     -7.03467381	    -12.79184494	      5.45091882	      0.09513648	    -30.67713229	    -11.87139386	     -7.49999987	     -7.35076653	      1.17180199	     -3.45868808	     61.79672028	    -18.75886578	     38.95289210	    123.62265534	     98.60847049	     67.59734786	    -21.12036171	     47.10026253	    120.71356589	     85.82670842
      4.05416670	    -16.00162481	      1.20781118	     -3.10372146	      0.34489292	      1.13037561	     -0.11815821	     21.08170702	     -7.93937115	    -19.20298454	      7.73300118	      0.13496633	    -31.28223241	    -10.47952263	     -7.49999987	     17.82189903	     -7.03281243	    -12.86155282	      5.97452400	      0.10427512	    -29.98636593	    -12.05114297	     -7.49999987	     -7.46139616	      1.23270712	     -3.56182710	     62.16515340	    -18.72158252	     38.86983274	    123.30624259	     98.42916128	     67.88553623	    -21.03376953	     47.15204512	    120.44404015	     85.77634293
      4.05833330	    -16.30975601	      1.21913167	     -3.21626230	      0.34343622	      1.12381620	     -0.11910280	     21.97145727	     -7.98368815	    -18.52168210	      8.51579784	      0.14862871	    -30.45302754	    -10.64699094	     -7.49999987	     18.54073824	     -7.06004021	    -12.69305793	      6.52495316	      0.11388192	    -29.50853858	    -12.41431719	     -7.49999987	     -7.50731573	      1.39612678	     -3.51129316	     62.55670924	    -18.84255232	     38.50275033	    123.55882290	    104.27829704	     68.23298735	    -21.15609967	     47.20211258	    120.80149866	     91.30312314
      4.06250000	    -16.39404152	      1.25369474	     -3.33200158	      0.34240772	      1.11962487	     -0.11885398	     22.42321447	     -7.95238851	    -18.07592606	      8.95538640	      0.15630098	    -29.65750554	    -10.95829859	     -7.49999987	     18.93183379	     -7.01674183	    -12.69213243	      6.92440924	      0.12085374	    -28.92612957	    -12.20569705	     -7.49999987	     -7.79172103	      1.41602193	     -3.40379436	     62.87193916	    -18.91924570	     38.66989898	    123.57907372	    100.68205107	     68.59571740	    -21.15619223	     47.62043100	    120.90418948	     88.95215665
      4.06666670	    -16.47180758	      1.20740484	     -3.35951877	      0.34183599	      1.10990247	     -0.11819657	     22.72843281	     -7.84910873	    -17.72362176	      9.27347201	      0.16185262	    -28.72781417	    -10.85139384	     -7.49999987	     19.44028183	     -7.14228173	    -12.65102406	      7.40777320	      0.12929003	    -28.26924827	    -12.25639874	     -7.49999987	     -7.89538887	      1.40505489	     -3.48627396	     63.10164410	    -18.73917678	     38.62207128	    123.29084159	    100.36252057	     68.71037611	    -21.01677560	     47.67735767	    120.56090119	     88.75419989
      4.07083330	    -16.63990585	      1.15579033	     -3.42794078	      0.34145053	      1.10193630	     -0.11959706	     23.19165724	     -7.79989799	    -17.69722080	      9.67580018	      0.16887457	    -27.60534075	    -10.35767417	     -7.49999987	     19.96557147	     -7.28041425	    -12.36855607	      7.85495766	      0.13709487	    -27.46106644	    -12.19305984	     -7.49999987	     -7.98270328	      1.51889449	     -3.51816802	     63.38898871	    -18.68759354	     38.82389619	    123.48375931	     97.72197094	     69.07147467	    -21.15230331	     48.13730820	    120.70660764	     86.63990413
      4.07500000	    -16.71028502	      1.18973778	     -3.51331700	      0.34043157	      1.09506969	     -0.12007963	     23.57488240	     -7.81561602	    -16.98805140	      9.95858698	      0.17381013	    -26.78314379	     -9.72177102	     -7.49999987	     20.42832387	     -7.34162900	    -12.10036051	      8.33021023	      0.14538960	    -26.49562783	    -12.04878192	     -7.49999987	     -8.00108284	      1.51089431	     -3.54056938	     63.33065557	    -18.48473176	     38.44504746	    123.11472325	    103.86871080	     69.27562797	    -21.13049030	     48.25884488	    120.30226997	     91.18511225
      4.07916670	    -16.79689290	      1.14049663	     -3.62143871	      0.33838358	      1.08308872	     -0.12005333	     24.03821107	     -7.71008284	    -16.40918477	     10.50992353	      0.18343277	    -26.21303116	     -9.48031784	     -7.49999987	     20.97686624	     -7.48553453	    -11.42914331	      8.95591112	      0.15631014	    -25.49644020	    -11.73981220	     -7.49999987	     -8.01522427	      1.61407943	     -3.62143617	     63.52415331	    -18.15419170	     38.46670380	    122.94813475	    103.26186088	     69.65088136	    -21.10055981	     48.32190335	    119.94160521	     90.83620399
      4.08333330	    -16.93049123	      1.10866615	     -3.58872316	      0.33753733	      1.07289618	     -0.11955869	     24.54031020	     -7.67017237	    -15.84803456	     11.11918417	      0.19406637	    -25.35727022	     -9.41223045	     -7.49999987	     21.61749122	     -7.58958541	    -10.92125357	      9.73542569	      0.16991523	    -24.28796742	    -11.62039582	     -7.49999987	     -7.95114065	      1.67289193	     -3.73320305	     63.80534064	    -17.88523031	     38.47544736	    122.97383824	    102.68358736	     70.12217082	    -21.24914996	     48.47221751	    119.69655838	     90.50488206
      4.08750000	    -17.06985809	      1.18519495	     -3.68649450	      0.33613257	      1.06674055	     -0.12161053	     25.19072503	     -7.77461065	    -15.45150486	     11.71328473	      0.20443538	    -24.55201633	     -9.19568203	     -7.49999987	     22.22307982	     -7.55040112	    -10.82202750	     10.36303200	      0.18086903	    -23.16347306	    -11.32166400	     -7.49999987	     -8.00450485	      1.55715212	     -3.78147292	     63.95601227	    -17.76966800	     38.43530647	    123.23213872	    103.21342458	     70.76099002	    -21.27330432	     48.87224490	    119.61210448	     90.88836771
